HIERARCHY
ROOT Hips
{
	OFFSET -0.001795 -0.223333 0.028219
	CHANNELS 6 Xposition Yposition Zposition Zrotation Yrotation Xrotation 
	JOINT LeftUpLeg
	{
		OFFSET 0.069520 -0.091406 -0.006815
		CHANNELS 3 Zrotation Yrotation Xrotation
		JOINT LeftLeg
		{
			OFFSET 0.034277 -0.375199 -0.004496
			CHANNELS 3 Zrotation Yrotation Xrotation
			JOINT LeftFoot
			{
				OFFSET -0.013596 -0.397961 -0.043693
				CHANNELS 3 Zrotation Yrotation Xrotation
				JOINT LeftToe
				{
					OFFSET 0.026358 -0.055791 0.119288
					CHANNELS 3 Zrotation Yrotation Xrotation
					End Site
					{
						OFFSET 0.000000 0.000000 0.000000
					}
				}
			}
		}
	}
	JOINT RightUpLeg
	{
		OFFSET -0.067670 -0.090522 -0.004320
		CHANNELS 3 Zrotation Yrotation Xrotation
		JOINT RightLeg
		{
			OFFSET -0.038290 -0.382569 -0.008850
			CHANNELS 3 Zrotation Yrotation Xrotation
			JOINT RightFoot
			{
				OFFSET 0.015774 -0.398415 -0.042312
				CHANNELS 3 Zrotation Yrotation Xrotation
				JOINT RightToe
				{
					OFFSET -0.025372 -0.048144 0.123348
					CHANNELS 3 Zrotation Yrotation Xrotation
					End Site
					{
						OFFSET 0.000000 0.000000 0.000000
					}
				}
			}
		}
	}
	JOINT Spine
	{
		OFFSET -0.002533 0.108963 -0.026696
		CHANNELS 3 Zrotation Yrotation Xrotation
		JOINT Spine1
		{
			OFFSET 0.005487 0.135180 0.001092
			CHANNELS 3 Zrotation Yrotation Xrotation
			JOINT Spine2
			{
				OFFSET 0.001457 0.052922 0.025425
				CHANNELS 3 Zrotation Yrotation Xrotation
				JOINT Neck
				{
					OFFSET -0.002778 0.213870 -0.042857
					CHANNELS 3 Zrotation Yrotation Xrotation
					JOINT Head
					{
						OFFSET 0.005152 0.064970 0.051349
						CHANNELS 3 Zrotation Yrotation Xrotation
						End Site
						{
							OFFSET 0.000000 0.000000 0.000000
						}
					}
				}
				JOINT LeftShoulder
				{
					OFFSET 0.078845 0.121749 -0.034090
					CHANNELS 3 Zrotation Yrotation Xrotation
					JOINT LeftArm
					{
						OFFSET 0.090977 0.030469 -0.008868
						CHANNELS 3 Zrotation Yrotation Xrotation
						JOINT LeftForeArm
						{
							OFFSET 0.259612 -0.012772 -0.027456
							CHANNELS 3 Zrotation Yrotation Xrotation
							JOINT LeftHand
							{
								OFFSET 0.249234 0.008986 -0.001171
								CHANNELS 3 Zrotation Yrotation Xrotation
								End Site
								{
									OFFSET 0.000000 0.000000 0.000000
								}
							}
						}
					}
				}
				JOINT RightShoulder
				{
					OFFSET -0.081759 0.118833 -0.038615
					CHANNELS 3 Zrotation Yrotation Xrotation
					JOINT RightArm
					{
						OFFSET -0.096012 0.032551 -0.009143
						CHANNELS 3 Zrotation Yrotation Xrotation
						JOINT RightForeArm
						{
							OFFSET -0.253742 -0.013329 -0.021401
							CHANNELS 3 Zrotation Yrotation Xrotation
							JOINT RightHand
							{
								OFFSET -0.255298 0.007772 -0.005559
								CHANNELS 3 Zrotation Yrotation Xrotation
								End Site
								{
									OFFSET 0.000000 0.000000 0.000000
								}
							}
						}
					}
				}
			}
		}
	}
}
MOTION
Frames: 13
Frame Time: 0.050000
-0.030138 0.931042 -0.052630 -1.213057 27.535285 16.488290 11.311057 -3.368278 -33.744120 -6.881032 -0.332161 21.154165 4.464779 14.337790 10.334659 0.000000 0.000000 0.000000 -3.443698 -0.606521 -33.600487 4.983177 -2.256761 19.689054 -3.554820 -8.219447 7.011217 0.000000 0.000000 0.000000 4.105761 -5.567841 31.870996 -2.555379 1.530604 -24.498154 -3.925338 8.091898 28.382947 16.661033 -1.743393 -39.883751 0.000000 0.000000 0.000000 -2.242708 -30.706798 9.352988 -10.011703 -39.712571 -2.427382 60.269259 -44.336235 -28.916690 0.000000 0.000000 0.000000 18.797129 8.517717 9.745878 17.012237 43.068232 0.554972 -45.865924 43.403879 -12.880659 0.000000 0.000000 0.000000 
-0.028372 0.934668 -0.047181 -0.913627 27.478045 15.622499 10.455653 -3.120584 -31.185793 -5.878347 -0.456931 19.572199 4.013491 13.532110 10.346824 0.000000 0.000000 0.000000 -3.413503 -0.376250 -31.355417 4.569719 -1.970386 18.198000 -3.253578 -7.575697 7.234908 0.000000 0.000000 0.000000 4.429591 -4.907262 28.894650 -2.837837 1.585090 -24.354334 -3.549935 7.121803 29.122673 16.196330 -1.613239 -40.001297 0.000000 0.000000 0.000000 -5.582457 -28.203537 8.424269 -18.559819 -37.092910 -0.091564 56.929996 -52.158199 -31.930435 0.000000 0.000000 0.000000 20.254101 6.574763 8.893384 24.750970 40.153610 1.908976 -41.030408 48.542429 -12.337171 0.000000 0.000000 0.000000 
-0.025853 0.937968 -0.040713 -0.707061 27.343152 14.652749 9.375289 -2.826806 -28.216806 -4.545380 -0.633423 18.167098 3.432834 12.302200 9.823969 0.000000 0.000000 0.000000 -3.344873 -0.161108 -29.179100 4.115347 -1.718327 17.072946 -3.212803 -7.496481 7.270686 0.000000 0.000000 0.000000 4.725731 -4.317554 26.164246 -3.065773 1.619045 -24.534006 -3.051095 6.208946 30.019579 14.532636 -1.076001 -39.208191 0.000000 0.000000 0.000000 -9.066027 -24.805580 6.931796 -26.589925 -32.724750 1.312817 51.170634 -59.902169 -32.972922 0.000000 0.000000 0.000000 21.117470 4.295828 7.586792 31.603919 36.646618 2.570586 -32.924346 53.016453 -9.565137 0.000000 0.000000 0.000000 
-0.023039 0.941212 -0.034052 -0.612247 27.195045 13.855906 8.498955 -2.509991 -25.295389 -3.478087 -0.663762 16.071854 3.419910 12.200518 9.833407 0.000000 0.000000 0.000000 -3.068696 0.096338 -26.847216 3.511094 -1.381330 15.439265 -2.995290 -7.035030 7.690479 0.000000 0.000000 0.000000 4.992421 -3.621238 22.817807 -3.276481 1.675817 -24.117727 -2.630234 5.547205 30.350813 13.987594 -0.965935 -38.564711 0.000000 0.000000 0.000000 -11.303593 -20.652923 4.919103 -34.080593 -27.186781 1.484285 41.507036 -67.858966 -30.867256 0.000000 0.000000 0.000000 22.353750 1.475250 6.045439 37.410704 31.577816 2.103375 -23.435312 57.466959 -5.177249 0.000000 0.000000 0.000000 
-0.020230 0.943436 -0.027462 -0.783848 26.823798 13.033100 8.026929 -2.198079 -22.759321 -2.677065 -0.665169 14.539617 3.505997 12.136557 9.625622 0.000000 0.000000 0.000000 -2.619120 0.338602 -25.168657 3.145167 -1.188556 14.562960 -2.871499 -6.812401 7.531147 0.000000 0.000000 0.000000 5.303379 -3.126208 20.174324 -3.546779 1.689238 -24.704866 -2.276992 5.279661 31.280015 12.931431 -0.538133 -38.264737 0.000000 0.000000 0.000000 -12.575236 -17.300774 3.226765 -39.456975 -21.308033 0.402216 29.350616 -72.393872 -24.121728 0.000000 0.000000 0.000000 22.963872 -1.001100 4.560466 42.000190 26.861966 1.172373 -13.272962 59.108033 0.519267 0.000000 0.000000 0.000000 
-0.017442 0.945600 -0.021417 -0.947732 26.687740 12.088932 7.679545 -1.905656 -20.242703 -1.904583 -0.643892 12.860031 3.461121 11.885599 9.417596 0.000000 0.000000 0.000000 -2.140450 0.559744 -23.047170 2.578283 -0.930413 13.307795 -2.643497 -6.347698 7.764311 0.000000 0.000000 0.000000 5.659997 -2.729288 17.774132 -3.761140 1.714776 -24.881709 -1.931583 5.141188 31.415615 12.502360 -0.479996 -37.151568 0.000000 0.000000 0.000000 -13.406662 -13.850617 1.461056 -43.575644 -15.795096 -1.234418 9.595166 -74.682216 -9.850266 0.000000 0.000000 0.000000 23.451313 -3.806586 2.767711 45.266005 21.568648 -0.314999 -1.904773 59.553121 7.055889 0.000000 0.000000 0.000000 
-0.014589 0.946784 -0.015642 -1.193538 26.555303 11.240093 7.618030 -1.667235 -18.128033 -1.524119 -0.578482 11.447127 3.490190 11.816815 9.348058 0.000000 0.000000 0.000000 -1.792591 0.688293 -21.520063 2.157743 -0.780088 12.795861 -2.485713 -6.026996 7.237731 0.000000 0.000000 0.000000 6.004807 -2.369360 15.500029 -4.044252 1.736837 -25.416551 -1.666050 5.126991 31.739407 11.912419 -0.295666 -36.222097 0.000000 0.000000 0.000000 -14.550354 -10.636540 -0.355801 -46.239825 -10.794524 -3.033984 -6.125990 -73.639543 2.071467 0.000000 0.000000 0.000000 24.246656 -6.442324 1.147211 46.891180 17.249926 -1.878893 7.562409 58.131418 12.171952 0.000000 0.000000 0.000000 
-0.011722 0.947197 -0.010380 -1.220239 26.756871 10.320974 7.195639 -1.455496 -15.879910 -1.014000 -0.513067 9.753745 3.416774 11.451358 8.904883 0.000000 0.000000 0.000000 -1.417324 0.792449 -19.360818 1.536674 -0.562484 11.763295 -2.556355 -6.167715 6.970157 0.000000 0.000000 0.000000 6.262840 -1.978685 13.016454 -4.106323 1.728553 -25.763280 -1.605480 5.391671 31.803164 11.787123 -0.263155 -35.166402 0.000000 0.000000 0.000000 -15.130841 -7.855451 -2.028435 -48.886948 -6.557013 -4.839380 -16.165986 -70.334456 8.822892 0.000000 0.000000 0.000000 24.625430 -9.266881 -0.594197 48.792227 12.729633 -3.464842 14.572403 55.641402 15.514199 0.000000 0.000000 0.000000 
-0.009121 0.947275 -0.005682 -1.117714 27.134943 9.290825 6.965515 -1.262511 -13.724024 -0.869727 -0.409550 8.161871 3.195946 11.224117 9.283500 0.000000 0.000000 0.000000 -1.375180 0.793134 -17.599701 1.030035 -0.412370 11.119819 -2.567476 -6.173502 6.776220 0.000000 0.000000 0.000000 6.551377 -1.688100 11.023347 -4.472564 1.793059 -25.900087 -1.593893 5.240753 31.950488 11.424456 -0.146928 -34.317124 0.000000 0.000000 0.000000 -15.652423 -6.337899 -3.012541 -50.546616 -3.900319 -6.090549 -14.756325 -65.451837 7.156665 0.000000 0.000000 0.000000 24.717173 -10.831180 -1.606578 49.795787 9.941120 -4.478831 17.173221 52.183187 15.658202 0.000000 0.000000 0.000000 
-0.006979 0.947182 -0.001733 -1.092693 27.326634 8.205825 6.755199 -1.087743 -11.665058 -0.775076 -0.341648 7.076518 3.033958 10.797489 9.009787 0.000000 0.000000 0.000000 -1.297886 0.791986 -15.564578 0.609420 -0.274024 10.249548 -2.655616 -6.368350 6.813260 0.000000 0.000000 0.000000 6.741506 -1.416641 9.201372 -4.475493 1.817396 -25.753937 -1.741646 5.738381 31.646112 11.399649 -0.067799 -33.824372 0.000000 0.000000 0.000000 -15.714887 -5.640482 -3.587069 -52.169638 -2.105947 -7.070263 -12.338115 -60.330884 4.986512 0.000000 0.000000 0.000000 24.530404 -11.959423 -2.227669 51.549259 8.064171 -5.075487 16.390649 48.100612 13.840091 0.000000 0.000000 0.000000 
-0.005571 0.947169 0.001397 -0.970703 27.446488 7.313475 6.758801 -0.973895 -10.196058 -1.057912 -0.254288 6.228424 3.060184 10.899879 9.252398 0.000000 0.000000 0.000000 -1.293314 0.764183 -13.766994 0.531015 -0.228697 9.477448 -2.738522 -6.565752 6.797740 0.000000 0.000000 0.000000 6.888681 -1.226599 7.881859 -4.645633 1.865110 -25.650490 -1.792077 5.877517 31.228133 11.333865 -0.045208 -33.297107 0.000000 0.000000 0.000000 -15.718813 -5.098954 -3.955069 -53.291379 -1.178681 -7.637125 -10.048061 -54.253888 3.307909 0.000000 0.000000 0.000000 23.956326 -12.611951 -2.678717 53.004938 6.907670 -5.325471 15.434433 44.080737 11.956847 0.000000 0.000000 0.000000 
-0.004823 0.947283 0.003731 -0.777327 27.999669 6.531530 6.642368 -0.890606 -8.987260 -1.305614 -0.198463 5.661971 2.897283 10.691332 9.364115 0.000000 0.000000 0.000000 -1.304241 0.709172 -11.995081 0.389624 -0.180835 8.740033 -2.837051 -6.773495 6.681341 0.000000 0.000000 0.000000 6.885440 -1.076118 6.913389 -4.654935 1.858445 -25.881377 -2.018492 5.967113 31.101420 11.324442 0.083206 -33.524127 0.000000 0.000000 0.000000 -15.424430 -4.896856 -4.093133 -54.218673 -1.106334 -7.893162 -9.026190 -49.016646 2.529885 0.000000 0.000000 0.000000 23.438075 -13.138417 -2.971816 54.777274 6.287495 -5.380480 13.795055 40.229036 10.009335 0.000000 0.000000 0.000000 
-0.004607 0.947436 0.005255 -0.586249 28.427983 6.138511 6.450602 -0.842780 -8.296224 -1.402920 -0.171032 5.291692 2.850556 10.593597 9.305164 0.000000 0.000000 0.000000 -1.267316 0.668900 -10.804409 0.312707 -0.143931 7.916182 -3.054026 -7.235972 6.731752 0.000000 0.000000 0.000000 6.686830 -0.970569 6.365069 -4.838143 1.896135 -25.888515 -1.987214 5.714035 31.054730 11.409210 0.008660 -33.248309 0.000000 0.000000 0.000000 -15.548027 -5.559574 -3.843072 -54.772984 -1.541212 -7.802548 -7.693393 -44.923049 1.904156 0.000000 0.000000 0.000000 23.593033 -12.795568 -2.664642 55.653569 6.740778 -5.217663 12.091922 38.073482 8.672813 0.000000 0.000000 0.000000 
